<svg version="1.1" xmlns="http://www.w3.org/2000/svg" xmlns:xlink="http://www.w3.org/1999/xlink" width="128.1388" height="48.5975" viewBox="0,0,128.1388,48.5975"><g transform="translate(-184.9306,-124.70125)"><g data-paper-data="{&quot;isPaintingLayer&quot;:true}" stroke-miterlimit="10" stroke-dasharray="" stroke-dashoffset="0" style="mix-blend-mode: normal"><path d="M250.39742,143.4118h3.27069" fill="none" fill-rule="evenodd" stroke="#f93dbf" stroke-width="1.28" stroke-linecap="round" stroke-linejoin="round"/><path d="M204.81601,144.4444l-18.8214,-6.16534" fill="none" fill-rule="evenodd" stroke="#f93dbf" stroke-width="2.128" stroke-linecap="round" stroke-linejoin="round"/><path d="M312.0054,139.70658l-13.08275,5.04153" fill="none" fill-rule="evenodd" stroke="#f93dbf" stroke-width="2.128" stroke-linecap="round" stroke-linejoin="round"/><path d="M225.92679,152.12818l15.1641,20.53057v0l-15.04516,-8.0786l-15.04516,8.0786z" fill="#ffd110" fill-rule="nonzero" stroke="none" stroke-width="1" stroke-linecap="butt" stroke-linejoin="miter"/><path d="M226.04572,125.34125l-0.11893,26.78693l-24.23282,-8.71638l16.82917,-2.49039z" fill="#ffd110" fill-rule="nonzero" stroke="none" stroke-width="1" stroke-linecap="butt" stroke-linejoin="miter"/><path d="M250.39748,143.4118l-12.16101,12.1179l2.85442,17.12906l-15.1641,-20.53057z" fill="#ffe922" fill-rule="nonzero" stroke="none" stroke-width="1" stroke-linecap="butt" stroke-linejoin="miter"/><path d="M250.39748,143.4118l-24.47069,8.71638l0.11893,-26.78693v0l7.52258,15.58015z" fill="#fff4a4" fill-rule="nonzero" stroke="none" stroke-width="1" stroke-linecap="butt" stroke-linejoin="miter"/><path d="M225.92679,152.12818l-14.92623,20.53057l2.85442,-17.12906l-12.16101,-12.1179z" fill="#f2c900" fill-rule="nonzero" stroke="none" stroke-width="1" stroke-linecap="butt" stroke-linejoin="miter"/><path d="M278.01992,151.82447l15.04516,20.83428v0l-15.04516,-8.0786l-15.04516,8.0786z" fill="#ffd110" fill-rule="nonzero" stroke="none" stroke-width="1" stroke-linecap="butt" stroke-linejoin="miter"/><path d="M278.01992,125.34125v26.48322l-24.35175,-8.41267l16.82917,-2.49039z" fill="#ffd110" fill-rule="nonzero" stroke="none" stroke-width="1" stroke-linecap="butt" stroke-linejoin="miter"/><path d="M278.01992,151.82447l-15.04516,20.83428l2.85442,-17.12906l-12.16101,-12.1179z" fill="#f2c900" fill-rule="nonzero" stroke="none" stroke-width="1" stroke-linecap="butt" stroke-linejoin="miter"/><path d="M226.04572,125.34125l7.52258,15.58015l16.82917,2.49039l-12.16101,12.1179l2.85442,17.12906l-15.04516,-8.0786l-15.04516,8.0786l2.85442,-17.12906l-12.16101,-12.1179l16.82917,-2.49039z" fill="none" fill-rule="evenodd" stroke="#f93dbf" stroke-width="1.28" stroke-linecap="round" stroke-linejoin="round"/><path d="M278.01992,151.82447v-26.48322v0l7.52258,15.58015l16.82917,2.49039z" fill="#fff4a4" fill-rule="nonzero" stroke="none" stroke-width="1" stroke-linecap="butt" stroke-linejoin="miter"/><path d="M290.21066,155.52969l2.85442,17.12906l-15.04516,-20.83428l24.35175,-8.41267v0z" fill="#ffe922" fill-rule="nonzero" stroke="none" stroke-width="1" stroke-linecap="butt" stroke-linejoin="miter"/><path d="M278.01992,125.34125l7.52258,15.58015l16.82917,2.49039l-12.16101,12.1179l2.85442,17.12906l-15.04516,-8.0786l-15.04516,8.0786l2.85442,-17.12906l-12.16101,-12.1179l16.82917,-2.49039z" fill="none" fill-rule="evenodd" stroke="#f93dbf" stroke-width="1.28" stroke-linecap="round" stroke-linejoin="round"/></g></g></svg>