<svg version="1.1" xmlns="http://www.w3.org/2000/svg" xmlns:xlink="http://www.w3.org/1999/xlink" width="88.4712" height="134.4254" viewBox="0,0,88.4712,134.4254"><g transform="translate(-205.75,22.5)"><g data-paper-data="{&quot;isPaintingLayer&quot;:true}" fill-rule="nonzero" stroke="none" stroke-width="1.15528" stroke-linecap="butt" stroke-linejoin="miter" stroke-miterlimit="10" stroke-dasharray="" stroke-dashoffset="0" style="mix-blend-mode: normal"><g><path d="M243.2429,10.46886l46.41699,85.35195l-77.66463,3.07989l31.24764,-88.43184" fill="#00a100"/><path d="M226.47725,57.91693l7.58167,-21.45485c0.83003,-0.17737 1.6898,-0.27129 2.56951,-0.27129c7.08905,0 12.83791,6.04094 12.83791,13.49015c0,7.44939 -5.7468,13.49015 -12.83791,13.49015c-4.13641,0 -7.80409,-2.06374 -10.15118,-5.25417z" fill="#8100ff"/><path d="M264.90555,56.97592c1.4734,0 2.86738,0.3401 4.13435,0.93054l5.98692,11.00702c-0.56791,5.37319 -4.85506,9.56948 -10.12127,9.56948c-5.65346,0 -10.23454,-4.81599 -10.23454,-10.7547c0,-5.93853 4.58108,-10.75452 10.23454,-10.75235z" fill="#2ec7ff"/><path d="M242.3534,69.73565c2.2498,0 4.28715,0.9598 5.7645,2.51022c1.47546,1.55241 2.38886,3.69345 2.38886,6.05755c0,2.3641 -0.9134,4.50497 -2.38886,6.05755c-1.47735,1.55024 -3.5147,2.51022 -5.7645,2.51022c-2.24997,0 -4.28732,-0.95998 -5.76467,-2.51022c-1.47546,-1.55259 -2.38886,-3.69345 -2.38886,-6.05755c0,-2.3641 0.9134,-4.50515 2.38886,-6.05755c1.47735,-1.55042 3.5147,-2.51022 5.76467,-2.51022z" fill="#ffff00"/><path d="M234.54742,96.89332c0,0.3755 -0.02595,0.74703 -0.05363,1.11423l-22.49852,0.89315l5.26621,-14.9071c1.34036,-0.4902 2.77594,-0.76997 4.27529,-0.76997c7.18444,0 13.01065,6.12222 13.01065,13.66968z" fill="#ffb903"/><path d="M278.26358,96.27362l-21.28519,0.84294c-0.36732,-1.16011 -0.57392,-2.39553 -0.57392,-3.68496c0,-6.44353 4.97039,-11.66645 11.10239,-11.66645c6.13199,0 11.10239,5.22292 11.10239,11.66645c0,0.98274 -0.12909,1.93008 -0.34566,2.84202z" fill="#dc5991"/><path d="M247.60362,18.48991l8.22693,15.12817c-1.32437,0.93271 -2.91706,1.47944 -4.63075,1.47944c-4.59895,0 -8.3261,-3.91868 -8.3261,-8.7493c0,-3.47219 1.94006,-6.4457 4.72993,-7.85831z" fill="#ff6b00"/></g><path d="M251.93254,-0.5089l9.5733,7.38672l-11.33856,-1.38967l9.35879,17.57988l-13.35803,-12.21318l1.32437,24.91241l-6.92816,-27.47682l-21.22778,3.87497l14.99438,-10.48124l-20.55038,-12.65967l24.85163,5.4086l-2.52791,-16.93308l8.18138,17.24194l17.81415,-6.97563l-10.16716,11.72479" fill="#2ec7ff"/><path d="M205.75,105.36085l5.55016,-17.4986l7.63323,8.7493l9.36687,-6.19735l4.85712,5.10407l7.63323,-5.83232l5.20656,7.29081l9.19206,-11.84798l8.15353,8.92883l7.97872,-6.19537l10.41124,5.83431l9.36687,-12.7619l3.1216,22.24144l-13.8785,-2.91914l-7.97872,7.65801l-9.71631,-6.92777l-10.05973,8.38427l-12.14298,-6.9256l-9.0212,9.47954l-4.51163,-8.38824l-8.67176,5.4691l-5.55222,-6.19735l-6.93813,2.55195" fill="#2ec7ff"/></g></g></svg>