<svg version="1.1" xmlns="http://www.w3.org/2000/svg" xmlns:xlink="http://www.w3.org/1999/xlink" width="109.517" height="44.01891" viewBox="0,0,109.517,44.01891"><g transform="translate(-193.686,-131.16823)"><g data-paper-data="{&quot;isPaintingLayer&quot;:true}" fill-rule="nonzero" stroke="none" stroke-width="1" stroke-linecap="butt" stroke-linejoin="miter" stroke-miterlimit="10" stroke-dasharray="" stroke-dashoffset="0" style="mix-blend-mode: normal"><path d="M231.08349,152.3902c6.52324,-7.16779 28.35024,-8.31415 34.47504,0c0.42149,6.55944 0,13.03405 0,13.03405c-13.21936,-11.04966 -20.58558,-12.76712 -34.47504,0c1.06855,-5.33032 0,-13.03405 0,-13.03405z" fill="#272525"/><path d="M193.686,131.16823c6.78173,0.70767 11.63876,0.70767 25.99911,0.70767c14.3587,0 25.99747,9.5412 25.99747,21.31095c0,11.76975 -11.98123,25.22178 -25.99747,21.30888c-22.89061,-6.39184 -25.99911,-31.55775 -25.99911,-43.3275z" fill="#272525"/><path d="M277.20553,174.49573c-14.01624,3.9129 -25.99747,-9.53913 -25.99747,-21.30888c0,-11.76975 11.63876,-21.31095 25.99747,-21.31095c14.3587,0 19.21573,0 25.99747,-0.70767c0,11.76975 -3.1085,36.93566 -25.99747,43.3275z" fill="#272525"/><path d="M240.7992,153.18685c0,7.26298 -8.62082,18.51129 -20.05542,15.3164c-15.95411,-4.45504 -20.66296,-19.41554 -21.83524,-30.76317c4.81587,0.269 10.30514,0.27521 20.77657,0.27521c13.71988,0 21.11409,8.8956 21.11409,15.17156z" fill="#ff5646"/><path d="M256.0898,153.18685c0,-6.27389 7.39421,-15.17156 21.11574,-15.17156c10.46814,0 15.9607,-0.00621 20.77492,-0.27521c-1.17227,11.34763 -5.87948,26.30812 -21.83524,30.76317c-11.4346,3.19488 -20.05542,-8.05549 -20.05542,-15.3164z" fill="#ff5646"/></g></g></svg>