<svg version="1.1" xmlns="http://www.w3.org/2000/svg" xmlns:xlink="http://www.w3.org/1999/xlink" width="99.38926" height="53.1386" viewBox="0,0,99.38926,53.1386"><g transform="translate(-198.71257,-226.4307)"><g data-paper-data="{&quot;isPaintingLayer&quot;:true}" fill-rule="evenodd" stroke-miterlimit="10" stroke-dasharray="" stroke-dashoffset="0" style="mix-blend-mode: normal"><g><path d="M295.82948,235.67669c1.20799,5.69136 1.79926,11.50063 1.76248,17.32331c0.32451,8.88837 -1.18324,17.74717 -4.42665,26.00577c-14.01767,0 -28.3633,-14.31778 -30.41248,-16.44671c0.06222,-0.40083 0.06222,-0.80956 0,-1.21039v-12.77325c10.60513,-5.34382 21.67915,-9.66218 33.07665,-12.89872z" fill="#14e148" stroke="none" stroke-width="1" stroke-linecap="butt" stroke-linejoin="miter"/><path d="M262.42487,244.56781c0.06222,-0.40083 0.06222,-0.80922 0,-1.21039c2.04918,-2.12893 16.43571,-16.44671 30.41248,-16.44671c1.21349,2.81268 2.12068,5.75221 2.70508,8.76599c-11.29919,3.25373 -22.27661,7.57175 -32.78961,12.89872z" fill="#acff74" stroke="none" stroke-width="1" stroke-linecap="butt" stroke-linejoin="miter"/><path d="M297.59196,253c0.27123,8.931 -1.30699,17.82039 -4.63154,26.0893c-15.08334,0 -30.69952,-16.69732 -30.69952,-16.69732v-18.78397c0,0 15.61618,-16.69732 30.69952,-16.69732c3.32454,8.26891 4.90277,17.1583 4.63154,26.0893z" fill="none" stroke="#149948" stroke-width="0.96" stroke-linecap="butt" stroke-linejoin="miter"/><g fill="none" stroke="#00b82b" stroke-width="0.768" stroke-linecap="round" stroke-linejoin="round"><path d="M280.00841,268.44498c-4.06639,-2.18256 -7.91036,-4.76939 -11.47657,-7.72266"/><path d="M287.83696,272.03457c0,0 -1.31146,-0.45893 -3.36098,-1.29393"/></g></g><g><path d="M233.77487,248.53347c-10.31465,-5.84227 -21.33917,-10.27718 -32.78995,-13.19058c0.61534,-2.86562 1.50775,-5.66214 2.66417,-8.34866c14.01767,0 28.3633,14.31778 30.41248,16.44671c-0.06222,0.40083 -0.06222,0.80956 0,1.21039z" fill="#acff74" stroke="none" stroke-width="1" stroke-linecap="butt" stroke-linejoin="miter"/><path d="M234.10248,261.43219c-0.06188,0.40083 -0.06188,0.80922 0,1.21039c-2.04918,2.12893 -16.43571,16.44671 -30.41248,16.44671c-3.26851,-8.28128 -4.7907,-17.16999 -4.46756,-26.0893c0.05019,-5.94403 0.73737,-11.86502 2.04952,-17.65711c11.45044,2.9134 22.47496,7.3483 32.78961,13.19058z" fill="#14e148" stroke="none" stroke-width="1" stroke-linecap="butt" stroke-linejoin="miter"/><path d="M203.85398,226.9107c15.08334,0 30.69952,16.69732 30.69952,16.69732v18.78397c0,0 -15.61618,16.69732 -30.69952,16.69732c-3.32454,-8.26891 -4.90277,-17.1583 -4.63154,-26.0893c-0.27123,-8.931 1.30699,-17.82039 4.63154,-26.0893z" fill="none" stroke="#149948" stroke-width="0.96" stroke-linecap="butt" stroke-linejoin="miter"/><g fill="none" stroke="#00b82b" stroke-width="0.768" stroke-linecap="round" stroke-linejoin="round"><path d="M227.38086,261.26512c-1.00482,0.93401 -2.05846,1.81164 -3.1561,2.6298"/><path d="M220.49492,266.39959c-3.76387,2.28466 -7.74638,4.17295 -11.88634,5.63498"/></g></g><g stroke-linecap="butt" stroke-linejoin="miter"><path d="M262.54794,262.64259c-0.50671,1.49675 -1.88864,2.50192 -3.44314,2.50467h-21.3952c-1.5545,-0.00275 -2.93643,-1.00792 -3.44314,-2.50467l0.28704,-0.2506v-13.56631h27.7074v13.56631z" fill="#14e148" stroke="none" stroke-width="1"/><path d="M234.26646,243.35741c0.50671,-1.49675 1.88864,-2.50192 3.44314,-2.50467h21.3952c1.5545,0.00275 2.93643,1.00792 3.44314,2.50467l-0.28704,0.2506v5.21765h-27.7074v-5.21765z" fill="#acff74" stroke="none" stroke-width="1"/><path d="M237.23803,265.14716c-1.75427,0 -3.17638,0 -3.17638,0v-24.29431c0,0 1.42211,0 3.17638,0h22.37932c1.75427,0 3.17638,0 3.17638,0v24.29431c0,0 -1.42211,0 -3.17638,0z" fill="none" stroke="#149948" stroke-width="0.96"/></g></g></g></svg>