<svg version="1.1" xmlns="http://www.w3.org/2000/svg" xmlns:xlink="http://www.w3.org/1999/xlink" width="167.24966" height="154.7245" viewBox="0,0,167.24966,154.7245"><g transform="translate(-145.96346,-193.2609)"><g data-paper-data="{&quot;isPaintingLayer&quot;:true}" fill-rule="nonzero" stroke="none" stroke-width="1.88565" stroke-linecap="butt" stroke-linejoin="miter" stroke-miterlimit="10" stroke-dasharray="" stroke-dashoffset="0" style="mix-blend-mode: normal"><g><g><path d="M163.60527,346.95859c-0.42528,-0.10539 -1.8154,-0.5427 -1.9727,-1.73744c-0.1537,-1.19101 1.00426,-1.88984 1.38311,-2.12029c0.36805,-0.12092 6.46107,-1.05414 12.63275,-5.64176c-0.59319,-0.5427 -1.15417,-1.07381 -1.69032,-1.60078c-2.58011,2.65492 -9.62035,5.43884 -15.11659,5.97761c-0.74329,-0.16006 -2.1084,-0.67936 -2.20846,-1.8741c-0.09286,-1.19867 1.10072,-1.83517 1.49379,-2.04596c0.37165,-0.09753 6.61477,-0.6715 13.06883,-5.00153c-0.63602,-0.73796 -1.22581,-1.47199 -1.76177,-2.18262c-2.34075,2.37788 -9.8455,4.90401 -15.56688,5.11873c-0.73268,-0.20685 -2.07277,-0.80049 -2.1084,-2.00682c-0.03582,-1.20654 1.18999,-1.76104 1.59025,-1.9445c0.38586,-0.07806 6.97581,-0.26545 13.83354,-4.52136c-0.39666,-0.6715 -0.76471,-1.35086 -1.10414,-2.03022c-2.49085,1.9445 -9.17366,3.6896 -14.63426,3.6896c-0.35383,0 -0.70406,-0.00766 -1.04349,-0.0234c-0.71468,-0.26545 -2.00833,-0.97608 -1.9619,-2.18262c0.04643,-1.19846 1.30446,-1.65544 1.71533,-1.80763l0.92201,-0.03913c1.64389,0 7.37247,-0.24971 13.45849,-3.47095c-0.26457,-0.84729 -0.4539,-1.60865 -0.58618,-2.26461c-2.90892,1.85464 -9.01636,3.35396 -14.07309,3.35396c-0.35383,0 -0.70046,-0.00787 -1.04349,-0.0234c-0.71468,-0.26545 -2.01193,-0.97608 -1.9655,-2.18262c0.04643,-1.19867 1.30446,-1.65544 1.71894,-1.80784l0.91121,-0.03106c1.68691,0 7.67267,-0.27332 13.9338,-3.72874l0.16431,-0.08986c0.37165,-1.06594 1.74035,-1.8389 2.34075,-2.13582l1.12934,-0.55037l0.12508,1.34299c1.21861,13.05637 14.75555,23.92246 14.89144,24.03572l1.22221,0.96821l-4.21698,2.17475l-0.40386,-0.37478c-2.43361,2.72139 -9.30575,5.90349 -14.75195,6.75471l-0.1645,0.03127z" fill="#871212"/><path d="M166.29984,313.50537c0,0 -2.54088,1.2494 -1.76196,2.21782c0,0 -0.00341,0.04286 -0.00701,0.12092c-0.311,-0.11326 -0.65403,-0.12092 -0.69326,-0.12092c-0.0036,0 -0.0036,0 -0.0036,0c-6.37901,3.52168 -12.415,3.83413 -14.33766,3.83413c-0.40728,0 -0.62882,-0.01574 -0.62882,-0.01574c-2.49445,0.90589 0,2.08116 0,2.08116c0.33223,0.01553 0.66824,0.0234 1.00767,0.0234c5.92151,0 13.20832,-2.12795 14.62346,-4.00205c0.03923,-0.06253 0.05003,-0.08986 0.08585,-0.14453c0.11068,1.11295 0.41088,2.71373 1.11494,4.67376c-0.12508,-0.01574 -0.22875,-0.0234 -0.27158,-0.0234c-0.0144,0 -0.02142,0 -0.02142,0c-6.372,3.51381 -12.40078,3.82626 -14.33046,3.82626c-0.41448,0 -0.63963,-0.01574 -0.63963,-0.01574c-2.49445,0.91376 0,2.08903 0,2.08903c0.33223,0.01553 0.66824,0.0234 1.00767,0.0234c5.92151,0 13.20832,-2.12795 14.62346,-4.00205c0.11087,-0.14846 0.16431,-0.26938 0.23576,-0.39052c0.54695,1.25727 1.25442,2.62386 2.18364,4.08012c-0.07505,0.00787 -0.12868,0.00787 -0.12868,0.00787c-7.4189,4.89614 -14.66269,5.04067 -14.66269,5.04067c-2.423,1.10487 0.1429,2.07329 0.1429,2.07329c6.07521,-0.23046 13.96223,-3.14317 15.31672,-5.25539c0.12148,-0.19132 0.18592,-0.34372 0.25377,-0.48804c0.88619,1.26886 1.9547,2.59239 3.18771,3.95899c-7.05806,5.1266 -14.0767,5.70429 -14.0767,5.70429c-2.36576,1.25727 0.24656,2.07329 0.24656,2.07329c6.0502,-0.59343 13.7801,-3.97845 15.02372,-6.16894c0.05363,-0.0938 0.06785,-0.15612 0.10727,-0.23812c0.97185,0.99948 2.04396,2.01076 3.23414,3.04937c-6.76146,5.45044 -13.67643,6.44226 -13.67643,6.44226c-2.30152,1.39393 0.35023,2.04989 0.35023,2.04989c6.01078,-0.95268 13.56196,-4.79075 14.69851,-7.04749c0.02843,-0.06253 0.03203,-0.08986 0.05705,-0.14453l0.66483,0.61683l2.32994,-1.20633c0,0 -13.98364,-11.06528 -15.25588,-24.72296M167.82566,310.61605l0.25016,2.68246c1.17577,12.61513 14.39471,23.23916 14.52699,23.34456l2.44441,1.93663l-2.7304,1.40946l-2.32994,1.19867l-1.04349,0.5427l-0.21093,-0.19919c-3.04462,2.79179 -9.79528,5.63017 -14.6769,6.39939l-0.32521,0.05466l-0.32161,-0.082c-0.56477,-0.13666 -2.423,-0.73009 -2.65876,-2.54559c-0.11087,-0.83963 0.11788,-2.06563 1.83682,-3.1119l0.17512,-0.10539c-1.34369,0.32011 -2.64815,0.55057 -3.83813,0.6715l-0.32882,0.02733l-0.31801,-0.09753c-0.55756,-0.17579 -2.38017,-0.87462 -2.53027,-2.69799c-0.06785,-0.85516 0.21814,-2.06936 1.9871,-3.00651l0.30721,-0.16006l0.33602,-0.03499c0.06065,-0.00787 5.51064,-0.51558 11.41074,-4.16232c-0.1645,-0.20292 -0.32521,-0.40211 -0.48251,-0.60109c-3.22694,2.47147 -10.38866,4.55242 -15.40958,4.74374l-0.33242,0.01574l-0.31441,-0.13273c-0.54316,-0.20706 -2.33013,-1.02308 -2.38377,-2.84645c-0.02502,-0.85122 0.32521,-2.04989 2.1372,-2.87358l0.31441,-0.14453l0.33943,-0.00787c0.06084,0 5.92872,-0.17952 12.2649,-3.82626c-0.05723,-0.09753 -0.11087,-0.20685 -0.16791,-0.30459c-3.24854,1.96003 -9.51668,3.30323 -14.31265,3.30323c-0.36444,0 -0.72548,-0.00787 -1.07912,-0.0234l-0.33242,-0.01574l-0.3038,-0.14432c-0.53236,-0.24992 -2.2585,-1.2026 -2.18705,-3.03384c0.03222,-0.85122 0.46451,-2.01076 2.32653,-2.69799l0.32521,-0.11326l0.33943,0.0236c0.02502,0 0.21435,0.00766 0.53956,0.00766c1.53321,0 6.71844,-0.22632 12.36496,-3.01024c-0.02502,-0.08986 -0.05003,-0.18346 -0.07145,-0.26545c-3.40584,1.70617 -9.07359,2.85018 -13.4943,2.85018c-0.36444,0 -0.72529,-0.00787 -1.07912,-0.0234l-0.33242,-0.01574l-0.3038,-0.14432c-0.53236,-0.24992 -2.2585,-1.2026 -2.18705,-3.03384c0.03222,-0.85122 0.4647,-2.01076 2.33013,-2.69012l0.32521,-0.11326l0.33943,0.01574c0.02142,0 0.20733,0.01553 0.52895,0.01553c1.62588,0 7.37948,-0.25779 13.42627,-3.56081c0.58599,-1.15187 1.85823,-1.91323 2.65156,-2.30354l2.2585,-1.11295zM163.32288,342.00385c0.75049,-0.13273 5.6179,-1.07775 10.84256,-4.65015c-0.05723,-0.047 -0.11087,-0.09773 -0.1645,-0.1524c-2.27271,1.9211 -6.58616,3.74841 -10.67806,4.80255z" fill="#000000"/></g><path d="M270.6756,252.83059l-12.16123,1.93663c-11.15678,0.08593 -32.16285,14.82901 -39.87835,41.01609c-7.7155,26.19474 -38.74199,45.06867 -38.74199,45.06867c-18.1686,-15.12966 -15.33813,-27.17082 -15.33813,-27.17082c36.4799,-20.33825 30.22597,-38.06818 46.75409,-55.80597c16.52812,-17.72992 38.34173,-15.94175 38.34173,-15.94175z" fill="#ba2915"/><g fill="#871212"><path d="M179.14713,304.25186c-0.59319,8.29689 15.33813,25.53898 15.33813,25.53898l-4.11332,3.6662c-17.14993,-9.36677 -16.29596,-25.42572 -16.29596,-25.42572z"/><path d="M191.23672,291.46114c2.16923,12.68925 18.28648,22.38007 18.28648,22.38007l-4.91384,5.69663c-16.52812,-10.24926 -17.57161,-22.61053 -17.57161,-22.61053z"/><path d="M198.1697,279.42765c3.09124,8.20309 21.181,14.4033 21.181,14.4033l-2.38358,7.0007c-17.27501,-4.39236 -21.07752,-16.90603 -21.07752,-16.90603z"/><path d="M207.62195,262.31063c1.9691,4.43543 20.66645,13.63428 20.66645,13.63428l-3.75948,5.79416c-17.01405,-3.95919 -20.08747,-14.64162 -20.08747,-14.64162z"/><path d="M221.34121,249.59777c1.24362,-0.46858 21.57065,10.15153 21.57065,10.15153l-5.98936,5.77469l-21.54563,-11.54545c0,0 4.72072,-3.91219 5.96435,-4.38077z"/><path d="M234.38162,244.73289l8.43738,-2.74085l17.69309,12.44327l-8.38014,1.42126l-17.75033,-11.12367"/></g><path d="M179.81537,342.01172l-0.46451,-0.38265c-18.42596,-15.35225 -15.78502,-27.6746 -15.65994,-28.1939l0.10007,-0.42572l0.35743,-0.19898c23.29659,-12.98618 28.97514,-24.89854 34.46437,-36.41273c3.00539,-6.3056 6.11103,-12.82985 12.07178,-19.21744c14.0767,-15.10233 32.06999,-16.27367 37.24821,-16.27367c1.14716,0 1.78697,0.05466 1.78697,0.05466l24.00426,12.37307l-15.08096,2.40127c-11.4856,0.09359 -31.83404,15.48477 -39.16007,40.34439c-7.73691,26.25727 -37.87722,44.84608 -39.15666,45.62711l-0.51094,0.30459zM165.36343,314.32139c-0.23936,2.15922 -0.47891,12.58407 14.60204,25.35532c4.02746,-2.57686 30.83717,-20.49044 37.81999,-44.19011c7.8692,-26.70638 29.0718,-41.60559 40.7219,-41.69545l9.12343,-1.46019l-18.28629,-9.48003c-0.03222,0.03913 -0.57898,0.00787 -1.41173,0.00393c-5.00671,0 -22.4068,1.13614 -35.99378,15.7115c-5.7572,6.1768 -8.66252,12.27534 -11.73955,18.72547c-5.5891,11.72498 -11.36771,23.8444 -34.83601,37.02956z" fill="#000000"/></g><g><path d="M299.90811,219.64303c7.14732,4.15052 2.68036,14.15358 2.68036,14.15358c13.17591,5.85669 9.15565,14.14965 9.15565,14.14965c-7.37247,-4.64228 -13.84795,0.97608 -33.98545,5.61464c-20.13409,4.63835 -40.83618,-5.61464 -40.83618,-5.61464c35.50786,-40.26632 62.98201,-28.30323 62.98561,-28.30323z" fill="#ba2915"/><g fill="#871212"><path d="M264.21793,225.11707c0,0 10.50313,8.1563 6.45766,29.65015h-3.21632c0,0 2.95194,-18.23742 -6.18589,-27.80339z"/><path d="M280.24592,218.78808c8.71256,12.32234 6.75066,31.34473 6.75066,31.34473l-4.03466,1.1322c1.71173,-23.1611 -7.40469,-31.13395 -7.40469,-31.13395z"/><path d="M252.11053,233.06652c0,0 6.70063,9.27297 4.91365,20.92382l-2.30493,-0.39445c0,0 -1.8298,-15.90262 -5.06754,-18.27656z"/><path d="M305.15077,245.8535h-3.75588c0.71468,-7.83225 -5.44279,-13.7904 -5.44279,-13.7904c1.18639,-8.93733 -3.97743,-14.07945 -3.97743,-14.07945l5.09597,0.80836c2.29792,2.56112 2.59091,13.12263 2.83387,13.78646c5.47141,4.14638 5.24986,13.27503 5.24626,13.27503z"/></g><path d="M312.53025,248.40303l-0.43229,0.89408l-0.80413,-0.50357c-4.37769,-2.75265 -8.82343,-1.50719 -17.03925,1.12061c-4.2348,1.35479 -9.50588,3.03757 -16.31017,4.60708c-3.53073,0.81209 -7.31163,1.22207 -11.24983,1.22207c-16.00638,0 -30.00082,-6.8365 -30.14031,-6.9069l-1.15417,-0.57004l0.87899,-0.99554c22.06036,-25.0118 41.09354,-30.26326 53.18332,-30.26326c6.72204,0 10.61021,1.65938 10.77812,1.72978c5.85367,3.39288 5.01031,10.51844 3.53073,14.54782c4.79577,2.29195 7.80495,5.19679 8.94851,8.6404c1.18639,3.57261 -0.13228,6.36026 -0.18952,6.47746zM311.02945,242.54634c-0.97924,-2.88145 -3.80611,-5.45044 -8.10515,-7.4964c-7.80135,-3.52561 -15.2989,0.57397 -15.2989,0.57397c7.17954,-4.83361 12.35776,-3.93952 14.51638,-3.1821c0.85037,-2.42074 2.53368,-8.92946 -2.65175,-11.9397c-0.01421,0 -3.73447,-1.54612 -10.02403,-1.54612c-11.57164,0 -29.75445,5.00547 -50.98547,28.64281c3.65222,1.59685 15.26308,6.1884 28.21764,6.1884c3.80952,0 7.47614,-0.39818 10.88179,-1.18293c6.73986,-1.55005 11.97531,-3.22517 16.17789,-4.56816c8.14438,-2.6044 12.91172,-3.88113 17.49675,-1.47592c0.20013,-0.88642 0.33943,-2.32715 -0.22515,-4.01386z" fill="#000000"/></g><g><path d="M202.74752,215.25066c0,0 -4.46715,-3.66248 -2.23348,-8.0509c2.23348,-4.38864 6.25393,-6.27454 6.25393,-5.82149c0,0.45284 38.63833,35.18259 82.1905,-1.58132v-5.00153c0,0 16.30297,8.25776 10.94262,24.85154c0,0 -9.77765,-3.41628 -18.84404,7.32081c-9.0734,10.73709 -17.11411,33.67561 -86.57539,11.95543c0,0 -5.58209,-1.95237 -2.68017,-7.80885c2.90172,-5.85669 11.61788,-11.47133 10.94604,-15.86369z" fill="#ba2915"/><g fill="#871212"><path d="M214.25112,207.32855c-4.80297,4.02545 -1.6761,9.88214 -1.9691,12.33021c-0.293,2.44807 -0.82554,7.92584 -3.72727,11.70531c-2.90191,3.77967 -3.23774,10.52258 -3.23774,10.52258l-7.14732,-1.8625c0.78252,-1.95216 0.67184,-5.6107 5.1388,-10.73709c4.46715,-5.1266 4.68869,-11.3034 4.68869,-11.3034c-3.12687,-10.81515 2.96616,-13.1891 2.96616,-13.1891z"/><path d="M227.31276,213.79814c0,0 -1.15417,1.78051 -1.15417,5.80989c0,4.02918 1.18999,8.0039 -0.95423,12.07242c-2.14422,4.06831 -4.62066,13.96226 -4.62066,13.96226l-5.20684,-1.08934c0,0 0.20373,-1.97183 1.6581,-6.55179c1.45456,-4.57975 5.24967,-8.10557 4.50638,-15.0046c-0.74329,-6.89903 1.47957,-12.15442 1.41514,-11.13941z"/><path d="M240.76044,216.31661c-1.07192,5.45437 -0.86117,7.72292 -0.11788,15.0046c0.74329,7.28168 -2.2693,15.5591 -2.2693,15.5591l-4.9887,-0.35925c0,0 3.98103,-8.98392 2.49426,-16.14074c-1.48659,-7.15682 1.04368,-14.31364 1.04368,-14.62216z"/><path d="M250.65957,216.35554h4.66728c4.34908,15.60983 -0.20013,20.0258 -0.20013,20.0258c1.11494,6.84437 -2.79824,10.50291 -2.79824,10.50291h-2.67676c4.02045,-5.70823 1.56542,-11.13154 1.56542,-11.13154c2.79445,-9.15184 -0.55756,-19.4011 -0.55756,-19.4011z"/><path d="M270.41823,211.73272c6.46126,16.00035 2.07997,22.32934 2.31573,23.12197c0.23595,0.79263 -0.67184,3.01024 -0.67184,3.01024l-3.87376,2.84645c1.56524,-3.33449 0.74689,-5.20466 0.74689,-5.20466c3.19491,-12.60726 -3.58797,-21.9233 -3.58797,-21.9233z"/><path d="M284.27338,203.78327c5.43559,4.14658 5.43559,16.42979 5.43559,16.42979l-3.9454,2.44041c1.56182,-11.79538 -4.76715,-16.75777 -4.76715,-16.75777z"/><path d="M288.96207,195.16233c17.94326,11.14314 10.53876,24.32851 10.53876,24.32851l-0.05003,-1.50719c0.87899,-14.11051 -9.59894,-17.71046 -9.59894,-17.71046z"/></g><path d="M300.74445,219.97101l-0.28598,0.89015l-0.82194,-0.28491c-0.01421,-0.00393 -1.40092,-0.47251 -3.55215,-0.47251c-3.65582,0 -9.12002,1.308 -14.36969,7.52394c-0.87198,1.02681 -1.72974,2.17082 -2.63734,3.37342c-5.68935,7.56286 -13.4871,17.92124 -36.88736,17.92124c-12.58651,0 -28.71797,-3.04937 -47.95128,-9.06219c-0.14309,-0.0468 -2.85548,-1.02288 -3.82752,-3.66227c-0.60381,-1.64778 -0.40026,-3.51401 0.6076,-5.54817c1.29366,-2.6044 3.58797,-5.068 5.80723,-7.45354c2.46223,-2.64333 4.9923,-5.36865 5.05674,-7.37547c-0.03222,-0.02733 -0.06804,-0.04307 -0.10007,-0.0704l0.02862,-0.08593c-1.74395,-1.64758 -3.99183,-5.18105 -2.07637,-8.94499c2.1084,-4.15031 5.86087,-6.39153 6.92577,-6.39153h0.89339l0.06084,0.58184c1.6617,1.51878 17.02125,14.77041 39.37442,14.77041c14.26602,0 28.08194,-5.50924 41.07933,-16.37119v-6.04801l1.26864,0.64416c0.16791,0.08986 16.97482,8.83193 11.40713,26.06595zM289.85186,196.41173v3.85753l-0.34303,0.29299c-13.42267,11.32659 -27.73171,17.07002 -42.52308,17.07002c-20.8736,0 -36.99804,-11.73284 -40.43231,-15.31705c-0.71107,0.26172 -3.53434,1.96396 -5.25687,5.35685c-1.8226,3.58441 1.8334,6.66878 1.99052,6.79757l0.28598,0.23439l0.02142,0.15219c1.49019,1.2026 4.68149,3.18603 10.99266,4.90794c0,0 -6.02878,0.19132 -11.08912,-2.84645c-0.604,2.46774 -2.94474,5.0094 -5.42118,7.67219c-2.1264,2.28035 -4.32425,4.64249 -5.48922,6.9891c-0.73969,1.49539 -0.91481,2.79945 -0.52175,3.87699c0.65043,1.78817 2.67316,2.53007 2.69458,2.53793c19.04398,5.95422 35.01113,8.97626 47.42953,8.97626c16.90337,0 25.17283,-5.35685 30.67987,-11.2682c-4.64226,1.30013 -18.91189,4.41203 -30.25459,-2.63939c0,0 16.06001,6.07141 32.37018,0.19132c0.96484,-1.18314 1.85823,-2.35821 2.71599,-3.49455c0.92921,-1.23366 1.8082,-2.405 2.70159,-3.45914c7.68347,-9.09739 16.18528,-8.41802 18.91549,-7.81672c3.53794,-12.53706 -5.9037,-19.83054 -9.46665,-22.07176z" fill="#000000"/></g></g></g></svg>