<svg version="1.1" xmlns="http://www.w3.org/2000/svg" xmlns:xlink="http://www.w3.org/1999/xlink" width="164.1222" height="109.08516" viewBox="0,0,164.1222,109.08516"><g transform="translate(-169.9389,-36.93714)"><g data-paper-data="{&quot;isPaintingLayer&quot;:true}" stroke-miterlimit="10" stroke-dasharray="" stroke-dashoffset="0" style="mix-blend-mode: normal"><g><path d="M260.34555,145.34233c-2.74859,0.19997 -5.52202,0.19997 -8.34555,0.19997c-44.97585,0 -81.5811,-17.66547 -81.5811,-39.40349c0,-21.73823 36.60525,-39.37839 81.5811,-39.37839c23.28753,0 44.17613,4.77222 59.16801,12.26825c9.44502,8.92007 13.5177,21.01345 6.79642,33.9065c-9.79468,18.71467 -37.25488,27.98468 -57.61889,32.40716z" fill="#fff2bb" fill-rule="nonzero" stroke="none" stroke-width="1" stroke-linecap="butt" stroke-linejoin="miter"/><path d="M260.2706,145.41722c20.36401,-4.49737 47.82422,-13.76738 57.61889,-32.48205c6.72128,-12.89304 2.6486,-24.93644 -6.79642,-33.9065c13.96755,7.12099 22.48803,16.61586 22.48803,27.11014c0,20.36377 -32.10777,37.17959 -73.3105,39.27841z" fill="#ffffff" fill-rule="nonzero" stroke="none" stroke-width="1" stroke-linecap="butt" stroke-linejoin="miter"/><path d="M333.5811,106.13881c0,20.41376 -32.10777,37.17959 -73.23555,39.20352c-2.74859,0.19997 -5.52202,0.19997 -8.34555,0.19997c-44.97585,0 -81.5811,-17.66547 -81.5811,-39.40349c0,-21.73823 36.60525,-39.37839 81.5811,-39.37839c23.28753,0 44.17613,4.77222 59.16801,12.26825c13.89261,7.071 22.41309,16.61586 22.41309,27.11014z" fill="none" fill-rule="evenodd" stroke="#5e154d" stroke-width="0.96" stroke-linecap="round" stroke-linejoin="round"/><path d="M225.63927,136.27229c-2.12401,-0.32484 -4.14783,-0.74967 -6.12175,-1.19938" fill="none" fill-rule="evenodd" stroke="#efdc8f" stroke-width="1.92" stroke-linecap="round" stroke-linejoin="round"/><path d="M211.27197,132.74924c-9.03796,-2.79206 -17.50124,-7.18426 -24.98654,-12.96793" fill="none" fill-rule="evenodd" stroke="#efdc8f" stroke-width="1.92" stroke-linecap="round" stroke-linejoin="round"/></g><path d="M300.79865,93.34575c1.39924,7.77088 2.1739,13.16789 2.1739,13.16789c-4.9037,4.70875 -10.80502,8.25296 -17.26577,10.3692c-10.84405,3.57305 -19.03972,4.62245 -33.70678,4.62245c-14.66707,0 -22.86273,-1.0994 -33.70678,-4.67244c-6.45616,-2.10151 -12.35706,-5.6283 -17.26577,-10.31921c0,0 0.77466,-5.39701 2.22379,-13.16789c7.4711,4.8973 23.46246,12.79306 48.74876,12.79306c25.3364,-0.0251 41.32776,-7.89576 48.79865,-12.79306z" fill="#5e154d" fill-rule="nonzero" stroke="#5e154d" stroke-width="0.96" stroke-linecap="round" stroke-linejoin="round"/><g><path d="M229.28715,37.65125c3.53411,0.80775 6.72983,2.69373 9.14526,5.39701c3.57293,3.873 8.29545,4.74754 13.56759,4.74754c5.27215,0 9.99466,-0.87454 13.56759,-4.74754c5.04732,-5.32213 12.74324,-8.34547 18.39009,-1.89885c0,0 -15.2167,50.37238 -43.60145,44.30079c-19.83922,-4.24783 -15.34174,-31.40796 -11.06908,-47.79895z" fill="#ffffff" fill-rule="nonzero" stroke="none" stroke-width="1" stroke-linecap="butt" stroke-linejoin="miter"/><path d="M299.99915,89.47296c0.24987,1.29916 0.47469,2.57363 0.69952,3.7979c-7.47089,4.8973 -23.46226,12.79306 -48.74855,12.79306c-25.28651,-0.0251 -41.25282,-7.79577 -48.74876,-12.79306c0.22482,-1.29936 0.44964,-2.47365 0.72457,-3.7979c3.12329,-16.391 8.62026,-39.9032 16.11641,-48.39865c2.20104,-2.78106 5.75394,-4.12544 9.24483,-3.49796c-3.69797,19.18949 -8.62026,41.45231 11.06908,46.4496c23.28753,5.84673 35.23106,-27.48497 39.12902,-45.99988c11.19391,2.62362 19.9891,48.12359 20.5139,51.44688z" fill="#fff2bb" fill-rule="nonzero" stroke="none" stroke-width="1" stroke-linecap="butt" stroke-linejoin="miter"/><path d="M300.69866,93.34575c-7.47089,4.8973 -23.46226,12.79306 -48.74855,12.79306c-25.28651,-0.0251 -41.25282,-7.79577 -48.74876,-12.79306c0.22482,-1.29916 0.44964,-2.47365 0.72457,-3.7979c3.12329,-16.391 8.62026,-39.9032 16.11641,-48.39844c2.20104,-2.78127 5.75394,-4.12565 9.24483,-3.49816c3.53411,0.80775 6.72983,2.69373 9.14526,5.39701c3.57293,3.873 8.29545,4.74754 13.56759,4.74754c5.27215,0 9.99466,-0.87454 13.56759,-4.72244c5.04732,-5.32213 12.51842,-8.59543 18.39009,-1.89906c5.87188,6.69638 10.59439,22.88741 13.86756,37.47954c0.84961,3.7979 1.59922,7.49583 2.27389,10.894c0.24987,1.32426 0.47469,2.57363 0.59952,3.7979z" fill="none" fill-rule="evenodd" stroke="#5e154d" stroke-width="0.96" stroke-linecap="round" stroke-linejoin="round"/></g></g></g></svg>