<svg version="1.1" xmlns="http://www.w3.org/2000/svg" xmlns:xlink="http://www.w3.org/1999/xlink" width="81.27" height="143.25433" viewBox="0,0,81.27,143.25433"><g transform="translate(-211.75,23.75)"><g data-paper-data="{&quot;isPaintingLayer&quot;:true}" fill-rule="nonzero" stroke="none" stroke-width="1" stroke-linecap="butt" stroke-linejoin="miter" stroke-miterlimit="10" stroke-dasharray="" stroke-dashoffset="0" style="mix-blend-mode: normal"><path d="M211.75,106.94625c0.73687,-28.74389 23.33819,-39.92194 20.14548,-67.31351c-2.94867,-25.30477 25.30477,-39.55172 13.7565,-63.38274c24.32148,12.52917 6.26399,33.65676 17.68727,52.08208c11.67088,18.79317 2.088,38.69223 18.67174,53.06418c8.72102,7.4937 9.82573,16.45756 9.82573,28.00583c-0.00119,10.68759 -68.29442,16.95159 -80.08672,-2.45584z" fill="#272525"/><path d="M285.94176,107.92835c-13.9172,6.73064 -54.29269,14.49456 -69.76935,-4.17599c0.9821,-14.74098 6.88777,-18.66103 12.09586,-28.26296c7.04491,-12.99106 10.41856,-21.35733 9.25552,-36.44591c-0.40236,-5.2188 -0.39165,-11.97087 1.49517,-16.85278c3.96886,-10.2769 14.73979,-21.12758 14.00411,-35.62214c4.17719,10.80902 0.0619,21.96326 0.58569,28.94269c0.80115,10.67212 9.54122,17.43133 11.69588,27.55942c1.51779,7.13657 -0.27618,15.10405 1.25589,22.23348c4.30218,20.0193 19.09077,21.68232 19.38123,42.62419z" fill="#5b76df"/><path d="M278.03737,102.36671l14.98263,0.36427l-12.15776,4.91048l1.40827,10.47094l-7.1449,-10.55784l-13.86721,1.94872l9.69002,-4.76882l-4.84501,-10.1769l8.6865,4.59264l3.8153,-7.3187l-0.56783,10.53522" fill="#ffe400"/><path d="M255.65389,88.83044c0.32022,7.74249 4.98429,13.247 12.37323,17.63132c-10.82211,1.13804 -23.17391,-4.15814 -24.52742,-17.02896c-1.29161,-12.28871 12.228,-18.86578 22.80488,-15.58141c-6.60564,4.74978 -11.02567,6.65207 -10.65069,14.97906z" fill="#ffe400"/><path d="M252.53023,50.93221l2.70225,-14.73979l2.94867,12.77559l10.56379,0.24523l-11.5447,5.4057l-0.24642,14.00292l-3.19509,-10.31618l-10.80902,3.18914l5.89615,-7.85916l-6.63302,-4.91286l10.31737,2.20942" fill="#ffe400"/><path d="M226.98143,91.22318l0.49164,-9.58169l4.66764,7.86154l10.07215,0.49164l-9.82692,7.12348l0.9821,9.58169l-4.66764,-11.54589l-10.56379,5.89615l5.4057,-7.86273l-3.93077,-5.89615l7.36989,3.93196" fill="#ffe400"/><path d="M249.11134,18.09923l5.67473,1.66778l-4.63431,4.63431l2.4975,5.39141l-5.76878,-4.65573l-7.98415,6.26637l6.6985,-9.65788l-8.14962,-7.94368l7.71511,4.21171l2.82487,-9.21147l1.12614,9.29718" fill="#ffe400"/></g></g></svg>